<?xml version="1.0" standalone="no"?>
<!DOCTYPE svg PUBLIC "-//W3C//DTD SVG 20010904//EN"
 "http://www.w3.org/TR/2001/REC-SVG-20010904/DTD/svg10.dtd">
<svg version="1.0" xmlns="http://www.w3.org/2000/svg"
 width="700.000000pt" height="700.000000pt" viewBox="0 0 700.000000 700.000000"
 preserveAspectRatio="xMidYMid meet">
<metadata>
Created by potrace 1.11, written by Peter Selinger 2001-2013
</metadata>
<g transform="translate(0.000000,700.000000) scale(0.100000,-0.100000)"
fill="#000000" stroke="none">
<path d="M1490 6980 c-299 -46 -550 -151 -795 -334 -103 -76 -127 -99 -275
-255 -8 -9 -35 -43 -60 -76 -171 -227 -276 -467 -337 -770 -16 -84 -18 -209
-20 -2015 -1 -1562 1 -1940 12 -2005 7 -44 16 -98 19 -119 4 -22 13 -63 22
-91 8 -29 16 -61 18 -71 7 -31 62 -174 97 -249 81 -175 234 -387 368 -509 19
-17 43 -41 55 -52 71 -71 272 -203 402 -264 189 -88 354 -135 559 -158 33 -4
920 -7 1970 -7 l1910 0 124 23 c383 69 739 266 991 548 78 87 93 106 157 202
135 202 214 400 270 674 16 76 17 242 19 2003 2 2071 3 2016 -50 2225 -142
551 -521 984 -1051 1200 -88 36 -257 82 -350 95 -27 4 -61 10 -75 13 -14 3
-889 7 -1945 8 -1793 2 -1928 1 -2035 -16z"/>
</g>
</svg>
